<svg xmlns="http://www.w3.org/2000/svg" viewBox="112.34998565673828 106.00499816894532 350.3000030517578 359.9900007629394"> <svg x="210.5" y="176.00499816894532" xmlns="http://www.w3.org/2000/svg" preserveAspectRatio="xMinYMin" height="160" width="160" fill="#ffffff" style="overflow: visible;"><rect rx="50%" ry="50%" y="3" x="3" height="154" width="154" stroke-width="6" stroke="#58595b" stroke-opacity="1" style=""></rect></svg> <svg xmlns="http://www.w3.org/2000/svg" id="Layer_1" dataName="Layer 1" viewBox="-0.00412750244140625 -0.00055694580078125 154.53411865234375 78.49626159667969" height="58.40625" width="115" y="228.7949981689453" x="230" preserveAspectRatio="xMinYMin" style="overflow: visible;"><path class="cls-1" d="M161.65,102.76h60.66v72.81H162c2.06-1.22,3.65-2.17,5.25-3.1q21.45-12.47,42.92-24.93c7.77-4.52,7.79-12.06,0-16.57q-22.54-13.12-45.13-26.2Z" transform="translate(-67.78 -100.02)" style="fill: #2ebfeb; fill-opacity: 1;"></path><path class="cls-2" d="M92.75,139.25c1,.65,1.9,1.22,2.78,1.73q18.75,10.91,37.5,21.8c3.93,2.3,5.52,6,4.37,9.77-1.64,5.46-7.3,7.6-12.53,4.61-9.75-5.6-19.47-11.27-29.19-16.92-7.6-4.41-15.22-8.8-22.79-13.26-6.75-4-6.84-11.44-.14-15.35q26-15.15,52-30.19c4.55-2.63,9.42-1.52,11.84,2.6s1.11,9-3.44,11.65c-12.55,7.37-25.15,14.65-37.73,22C94.6,138.13,93.8,138.62,92.75,139.25Z" transform="translate(-67.78 -100.02)" style="fill: #58595b;"></path><path class="cls-1" d="M150.08,115.85l40.29,23.4-40.29,23.4Z" transform="translate(-67.78 -100.02)" style="fill: #2ebfeb; fill-opacity: 1;"></path></svg> <svg xmlns="http://www.w3.org/2000/svg" y="364.7949981689453" viewBox="3.2300000190734863 11.300000190734863 210.3000030517578 31.200000762939453" x="182.34998565673828" height="31.200000762939453" width="210.3000030517578" style="overflow: visible;"><g fill="#58595b" fill-opacity="1" style=""><path d="M14.24 42.21L3.23 42.21L3.23 12.31L14.24 12.31Q19.15 12.31 22.60 14.07Q26.04 15.83 27.87 19.17Q29.69 22.51 29.69 27.22L29.69 27.22Q29.69 31.96 27.87 35.32Q26.04 38.68 22.58 40.45Q19.11 42.21 14.24 42.21L14.24 42.21ZM8.65 16.72L8.65 37.80L13.90 37.80Q19.07 37.80 21.65 35.15Q24.23 32.51 24.23 27.22L24.23 27.22Q24.23 16.72 13.90 16.72L13.90 16.72L8.65 16.72ZM51.49 36.25L53.00 39.86Q51.49 41.12 49.29 41.81Q47.08 42.50 44.81 42.50L44.81 42.50Q41.37 42.50 38.87 41.20Q36.37 39.90 35.03 37.42Q33.68 34.94 33.68 31.54L33.68 31.54Q33.68 28.27 34.99 25.77Q36.29 23.27 38.60 21.86Q40.91 20.45 43.93 20.45L43.93 20.45Q46.87 20.45 48.97 21.73Q51.07 23.02 52.23 25.41Q53.38 27.80 53.38 31.08L53.38 31.08L53.38 31.88L38.30 31.88L38.35 29.06L50.27 29.06L48.85 30.49Q48.89 27.43 47.65 25.83Q46.41 24.23 44.06 24.23L44.06 24.23Q41.54 24.23 40.15 26.02Q38.77 27.80 38.77 31.12L38.77 31.12Q38.77 34.90 40.32 36.69Q41.87 38.47 45.02 38.47L45.02 38.47Q46.75 38.47 48.41 37.91Q50.06 37.34 51.49 36.25L51.49 36.25ZM68.29 42.21L63.71 42.21L54.56 21.04L60.06 21.04L66.74 37.63L65.56 37.63L72.37 21.04L77.57 21.04L68.29 42.21ZM92.36 32.97L79.72 32.97L79.72 28.81L92.36 28.81L92.36 32.97ZM103.87 42.21L98.45 42.21L98.45 12.31L103.87 12.31L103.87 42.21ZM117.77 42.50L117.77 42.50Q111.97 42.50 108.61 39.86L108.61 39.86L110.08 36.16Q111.76 37.42 113.74 38.05Q115.71 38.68 117.85 38.68L117.85 38.68Q119.78 38.68 120.79 38.05Q121.80 37.42 121.80 36.29L121.80 36.29Q121.80 35.32 121.09 34.76Q120.37 34.19 118.65 33.77L118.65 33.77L115.12 32.97Q112.22 32.34 110.78 30.85Q109.33 29.36 109.33 27.05L109.33 27.05Q109.33 25.12 110.42 23.63Q111.51 22.13 113.48 21.29Q115.46 20.45 118.06 20.45L118.06 20.45Q120.33 20.45 122.43 21.15Q124.53 21.84 126.08 23.14L126.08 23.14L124.57 26.75Q122.98 25.54 121.32 24.95Q119.66 24.36 118.02 24.36L118.02 24.36Q116.21 24.36 115.21 25.03Q114.20 25.70 114.20 26.88L114.20 26.88Q114.20 27.80 114.81 28.35Q115.42 28.90 116.93 29.23L116.93 29.23L120.50 30.11Q123.65 30.79 125.10 32.28Q126.55 33.77 126.55 36.20L126.55 36.20Q126.55 39.10 124.19 40.80Q121.84 42.50 117.77 42.50ZM136.25 42.21L131.00 42.21L131.00 11.30L136.25 11.30L136.25 42.21ZM150.19 42.50L150.19 42.50Q147.42 42.50 145.28 41.18Q143.14 39.86 141.98 37.40Q140.83 34.94 140.83 31.63L140.83 31.63Q140.83 28.27 142.00 25.77Q143.18 23.27 145.30 21.86Q147.42 20.45 150.19 20.45L150.19 20.45Q152.88 20.45 154.88 21.78Q156.87 23.10 157.58 25.45L157.58 25.45L157.08 25.75L157.08 21L162.25 21L162.25 42.21L157.08 42.21L157.08 37.42L157.58 37.59Q156.87 39.94 154.88 41.22Q152.88 42.50 150.19 42.50ZM151.62 38.47L151.62 38.47Q154.22 38.47 155.65 36.67Q157.08 34.86 157.08 31.54L157.08 31.54Q157.08 28.14 155.65 26.36Q154.22 24.57 151.62 24.57L151.62 24.57Q148.97 24.57 147.50 26.42Q146.03 28.27 146.03 31.63L146.03 31.63Q146.03 34.90 147.50 36.69Q148.97 38.47 151.62 38.47ZM173.17 42.21L167.92 42.21L167.92 27.01Q167.92 25.49 167.85 23.98Q167.79 22.47 167.58 21L167.58 21L172.54 21L173.00 25.20L172.54 25.33Q173.54 22.93 175.54 21.69Q177.53 20.45 180.14 20.45L180.14 20.45Q187.70 20.45 187.70 29.19L187.70 29.19L187.70 42.21L182.45 42.21L182.45 29.40Q182.45 26.92 181.48 25.77Q180.52 24.61 178.50 24.61L178.50 24.61Q176.06 24.61 174.62 26.14Q173.17 27.68 173.17 30.20L173.17 30.20L173.17 42.21ZM213.53 11.30L213.53 42.21L208.36 42.21L208.36 36.83L208.87 37.59Q208.15 39.94 206.16 41.22Q204.16 42.50 201.47 42.50L201.47 42.50Q198.70 42.50 196.58 41.14Q194.46 39.77 193.28 37.25Q192.11 34.73 192.11 31.42L192.11 31.42Q192.11 28.10 193.26 25.62Q194.42 23.14 196.56 21.80Q198.70 20.45 201.47 20.45L201.47 20.45Q204.16 20.45 206.16 21.80Q208.15 23.14 208.87 25.41L208.87 25.41L208.28 26.04L208.28 11.30L213.53 11.30ZM202.90 38.47L202.90 38.47Q205.51 38.47 206.93 36.67Q208.36 34.86 208.36 31.50L208.36 31.50Q208.36 28.18 206.93 26.38Q205.51 24.57 202.90 24.57L202.90 24.57Q200.26 24.57 198.79 26.36Q197.32 28.14 197.32 31.42L197.32 31.42Q197.32 34.78 198.79 36.62Q200.26 38.47 202.90 38.47Z" transform="translate(0, 0)"></path></g></svg></svg>